<mxfile host="app.diagrams.net" modified="2024-05-20T07:08:57.851Z" agent="Mozilla/5.0 (Windows NT 10.0; Win64; x64) AppleWebKit/537.36 (KHTML, like Gecko) Chrome/125.0.0.0 Safari/537.36" etag="v3HYCkA9ejHqbcB9N_LL" version="24.4.4" type="device">
  <diagram name="Page-1" id="wOeOzAKFVHeykWtnYI4I">
    <mxGraphModel dx="724" dy="389" grid="1" gridSize="10" guides="1" tooltips="1" connect="1" arrows="1" fold="1" page="1" pageScale="1" pageWidth="850" pageHeight="1100" math="0" shadow="0">
      <root>
        <mxCell id="0" />
        <mxCell id="1" parent="0" />
        <mxCell id="as5cuZJcGbEVG_w11zq_-50" value="" style="group" vertex="1" connectable="0" parent="1">
          <mxGeometry x="10" y="70" width="495" height="280" as="geometry" />
        </mxCell>
        <mxCell id="as5cuZJcGbEVG_w11zq_-34" style="edgeStyle=none;rounded=0;orthogonalLoop=1;jettySize=auto;html=1;strokeColor=default;align=center;verticalAlign=middle;fontFamily=Helvetica;fontSize=11;fontColor=default;labelBackgroundColor=default;endArrow=none;endFill=0;" edge="1" parent="as5cuZJcGbEVG_w11zq_-50" source="as5cuZJcGbEVG_w11zq_-8" target="as5cuZJcGbEVG_w11zq_-16">
          <mxGeometry relative="1" as="geometry" />
        </mxCell>
        <mxCell id="as5cuZJcGbEVG_w11zq_-42" style="edgeStyle=none;rounded=0;orthogonalLoop=1;jettySize=auto;html=1;entryX=0.5;entryY=1;entryDx=0;entryDy=0;strokeColor=default;align=center;verticalAlign=middle;fontFamily=Helvetica;fontSize=11;fontColor=default;labelBackgroundColor=default;endArrow=none;endFill=0;" edge="1" parent="as5cuZJcGbEVG_w11zq_-50" source="as5cuZJcGbEVG_w11zq_-8" target="as5cuZJcGbEVG_w11zq_-15">
          <mxGeometry relative="1" as="geometry" />
        </mxCell>
        <mxCell id="as5cuZJcGbEVG_w11zq_-43" style="edgeStyle=none;rounded=0;orthogonalLoop=1;jettySize=auto;html=1;entryX=0;entryY=0.5;entryDx=0;entryDy=0;strokeColor=default;align=center;verticalAlign=middle;fontFamily=Helvetica;fontSize=11;fontColor=default;labelBackgroundColor=default;endArrow=none;endFill=0;" edge="1" parent="as5cuZJcGbEVG_w11zq_-50" source="as5cuZJcGbEVG_w11zq_-8" target="as5cuZJcGbEVG_w11zq_-17">
          <mxGeometry relative="1" as="geometry" />
        </mxCell>
        <mxCell id="as5cuZJcGbEVG_w11zq_-44" style="edgeStyle=none;rounded=0;orthogonalLoop=1;jettySize=auto;html=1;strokeColor=default;align=center;verticalAlign=middle;fontFamily=Helvetica;fontSize=11;fontColor=default;labelBackgroundColor=default;endArrow=none;endFill=0;" edge="1" parent="as5cuZJcGbEVG_w11zq_-50" source="as5cuZJcGbEVG_w11zq_-8" target="as5cuZJcGbEVG_w11zq_-18">
          <mxGeometry relative="1" as="geometry" />
        </mxCell>
        <mxCell id="as5cuZJcGbEVG_w11zq_-47" style="edgeStyle=none;rounded=0;orthogonalLoop=1;jettySize=auto;html=1;entryX=1;entryY=0;entryDx=0;entryDy=0;strokeColor=default;align=center;verticalAlign=middle;fontFamily=Helvetica;fontSize=11;fontColor=default;labelBackgroundColor=default;endArrow=none;endFill=0;" edge="1" parent="as5cuZJcGbEVG_w11zq_-50" source="as5cuZJcGbEVG_w11zq_-8" target="as5cuZJcGbEVG_w11zq_-29">
          <mxGeometry relative="1" as="geometry" />
        </mxCell>
        <mxCell id="as5cuZJcGbEVG_w11zq_-48" style="edgeStyle=none;rounded=0;orthogonalLoop=1;jettySize=auto;html=1;entryX=1;entryY=0.5;entryDx=0;entryDy=0;strokeColor=default;align=center;verticalAlign=middle;fontFamily=Helvetica;fontSize=11;fontColor=default;labelBackgroundColor=default;endArrow=none;endFill=0;" edge="1" parent="as5cuZJcGbEVG_w11zq_-50" source="as5cuZJcGbEVG_w11zq_-8" target="as5cuZJcGbEVG_w11zq_-21">
          <mxGeometry relative="1" as="geometry" />
        </mxCell>
        <mxCell id="as5cuZJcGbEVG_w11zq_-49" style="edgeStyle=none;rounded=0;orthogonalLoop=1;jettySize=auto;html=1;entryX=1;entryY=0.5;entryDx=0;entryDy=0;strokeColor=default;align=center;verticalAlign=middle;fontFamily=Helvetica;fontSize=11;fontColor=default;labelBackgroundColor=default;endArrow=none;endFill=0;" edge="1" parent="as5cuZJcGbEVG_w11zq_-50" source="as5cuZJcGbEVG_w11zq_-8" target="as5cuZJcGbEVG_w11zq_-12">
          <mxGeometry relative="1" as="geometry" />
        </mxCell>
        <mxCell id="as5cuZJcGbEVG_w11zq_-192" style="edgeStyle=none;rounded=0;orthogonalLoop=1;jettySize=auto;html=1;strokeColor=default;align=center;verticalAlign=middle;fontFamily=Helvetica;fontSize=11;fontColor=default;labelBackgroundColor=default;endArrow=none;endFill=0;" edge="1" parent="as5cuZJcGbEVG_w11zq_-50" source="as5cuZJcGbEVG_w11zq_-8" target="as5cuZJcGbEVG_w11zq_-191">
          <mxGeometry relative="1" as="geometry" />
        </mxCell>
        <mxCell id="as5cuZJcGbEVG_w11zq_-194" style="edgeStyle=none;rounded=0;orthogonalLoop=1;jettySize=auto;html=1;strokeColor=default;align=center;verticalAlign=middle;fontFamily=Helvetica;fontSize=11;fontColor=default;labelBackgroundColor=default;endArrow=none;endFill=0;" edge="1" parent="as5cuZJcGbEVG_w11zq_-50" source="as5cuZJcGbEVG_w11zq_-8" target="as5cuZJcGbEVG_w11zq_-193">
          <mxGeometry relative="1" as="geometry" />
        </mxCell>
        <mxCell id="as5cuZJcGbEVG_w11zq_-8" value="Videos_long" style="whiteSpace=wrap;html=1;align=center;" vertex="1" parent="as5cuZJcGbEVG_w11zq_-50">
          <mxGeometry x="190" y="130" width="100" height="40" as="geometry" />
        </mxCell>
        <mxCell id="as5cuZJcGbEVG_w11zq_-12" value="&lt;u&gt;vdo_id&lt;/u&gt;" style="ellipse;whiteSpace=wrap;html=1;align=center;" vertex="1" parent="as5cuZJcGbEVG_w11zq_-50">
          <mxGeometry x="10" y="60" width="100" height="40" as="geometry" />
        </mxCell>
        <mxCell id="as5cuZJcGbEVG_w11zq_-15" value="Vdo_url" style="ellipse;whiteSpace=wrap;html=1;align=center;" vertex="1" parent="as5cuZJcGbEVG_w11zq_-50">
          <mxGeometry x="140" width="100" height="40" as="geometry" />
        </mxCell>
        <mxCell id="as5cuZJcGbEVG_w11zq_-16" value="Thumb_url" style="ellipse;whiteSpace=wrap;html=1;align=center;" vertex="1" parent="as5cuZJcGbEVG_w11zq_-50">
          <mxGeometry x="295" y="10" width="100" height="40" as="geometry" />
        </mxCell>
        <mxCell id="as5cuZJcGbEVG_w11zq_-17" value="Title" style="ellipse;whiteSpace=wrap;html=1;align=center;" vertex="1" parent="as5cuZJcGbEVG_w11zq_-50">
          <mxGeometry x="395" y="80" width="100" height="40" as="geometry" />
        </mxCell>
        <mxCell id="as5cuZJcGbEVG_w11zq_-18" value="Description" style="ellipse;whiteSpace=wrap;html=1;align=center;" vertex="1" parent="as5cuZJcGbEVG_w11zq_-50">
          <mxGeometry x="395" y="150" width="100" height="40" as="geometry" />
        </mxCell>
        <mxCell id="as5cuZJcGbEVG_w11zq_-21" value="create_date" style="ellipse;whiteSpace=wrap;html=1;align=center;" vertex="1" parent="as5cuZJcGbEVG_w11zq_-50">
          <mxGeometry x="10" y="180" width="100" height="40" as="geometry" />
        </mxCell>
        <mxCell id="as5cuZJcGbEVG_w11zq_-29" value="&lt;span style=&quot;border-bottom: 1px dotted&quot;&gt;Channel_id&lt;/span&gt;" style="ellipse;whiteSpace=wrap;html=1;align=center;fontFamily=Helvetica;fontSize=11;fontColor=default;labelBackgroundColor=default;" vertex="1" parent="as5cuZJcGbEVG_w11zq_-50">
          <mxGeometry x="110" y="230" width="100" height="40" as="geometry" />
        </mxCell>
        <mxCell id="as5cuZJcGbEVG_w11zq_-191" value="duration" style="ellipse;whiteSpace=wrap;html=1;align=center;" vertex="1" parent="as5cuZJcGbEVG_w11zq_-50">
          <mxGeometry x="270" y="230" width="100" height="40" as="geometry" />
        </mxCell>
        <mxCell id="as5cuZJcGbEVG_w11zq_-193" value="Description" style="ellipse;whiteSpace=wrap;html=1;align=center;" vertex="1" parent="as5cuZJcGbEVG_w11zq_-50">
          <mxGeometry x="380" y="200" width="100" height="40" as="geometry" />
        </mxCell>
        <mxCell id="as5cuZJcGbEVG_w11zq_-69" value="" style="group" vertex="1" connectable="0" parent="1">
          <mxGeometry x="40" y="390" width="495" height="280" as="geometry" />
        </mxCell>
        <mxCell id="as5cuZJcGbEVG_w11zq_-70" style="edgeStyle=none;rounded=0;orthogonalLoop=1;jettySize=auto;html=1;strokeColor=default;align=center;verticalAlign=middle;fontFamily=Helvetica;fontSize=11;fontColor=default;labelBackgroundColor=default;endArrow=none;endFill=0;" edge="1" parent="as5cuZJcGbEVG_w11zq_-69" source="as5cuZJcGbEVG_w11zq_-79" target="as5cuZJcGbEVG_w11zq_-82">
          <mxGeometry relative="1" as="geometry" />
        </mxCell>
        <mxCell id="as5cuZJcGbEVG_w11zq_-71" style="edgeStyle=none;rounded=0;orthogonalLoop=1;jettySize=auto;html=1;entryX=0.5;entryY=1;entryDx=0;entryDy=0;strokeColor=default;align=center;verticalAlign=middle;fontFamily=Helvetica;fontSize=11;fontColor=default;labelBackgroundColor=default;endArrow=none;endFill=0;" edge="1" parent="as5cuZJcGbEVG_w11zq_-69" source="as5cuZJcGbEVG_w11zq_-79" target="as5cuZJcGbEVG_w11zq_-81">
          <mxGeometry relative="1" as="geometry" />
        </mxCell>
        <mxCell id="as5cuZJcGbEVG_w11zq_-72" style="edgeStyle=none;rounded=0;orthogonalLoop=1;jettySize=auto;html=1;entryX=0;entryY=0.5;entryDx=0;entryDy=0;strokeColor=default;align=center;verticalAlign=middle;fontFamily=Helvetica;fontSize=11;fontColor=default;labelBackgroundColor=default;endArrow=none;endFill=0;" edge="1" parent="as5cuZJcGbEVG_w11zq_-69" source="as5cuZJcGbEVG_w11zq_-79" target="as5cuZJcGbEVG_w11zq_-83">
          <mxGeometry relative="1" as="geometry" />
        </mxCell>
        <mxCell id="as5cuZJcGbEVG_w11zq_-73" style="edgeStyle=none;rounded=0;orthogonalLoop=1;jettySize=auto;html=1;strokeColor=default;align=center;verticalAlign=middle;fontFamily=Helvetica;fontSize=11;fontColor=default;labelBackgroundColor=default;endArrow=none;endFill=0;" edge="1" parent="as5cuZJcGbEVG_w11zq_-69" source="as5cuZJcGbEVG_w11zq_-79" target="as5cuZJcGbEVG_w11zq_-84">
          <mxGeometry relative="1" as="geometry" />
        </mxCell>
        <mxCell id="as5cuZJcGbEVG_w11zq_-74" style="edgeStyle=none;rounded=0;orthogonalLoop=1;jettySize=auto;html=1;strokeColor=default;align=center;verticalAlign=middle;fontFamily=Helvetica;fontSize=11;fontColor=default;labelBackgroundColor=default;endArrow=none;endFill=0;" edge="1" parent="as5cuZJcGbEVG_w11zq_-69" source="as5cuZJcGbEVG_w11zq_-79" target="as5cuZJcGbEVG_w11zq_-85">
          <mxGeometry relative="1" as="geometry" />
        </mxCell>
        <mxCell id="as5cuZJcGbEVG_w11zq_-75" style="edgeStyle=none;rounded=0;orthogonalLoop=1;jettySize=auto;html=1;entryX=0.5;entryY=0;entryDx=0;entryDy=0;strokeColor=default;align=center;verticalAlign=middle;fontFamily=Helvetica;fontSize=11;fontColor=default;labelBackgroundColor=default;endArrow=none;endFill=0;" edge="1" parent="as5cuZJcGbEVG_w11zq_-69" source="as5cuZJcGbEVG_w11zq_-79" target="as5cuZJcGbEVG_w11zq_-86">
          <mxGeometry relative="1" as="geometry" />
        </mxCell>
        <mxCell id="as5cuZJcGbEVG_w11zq_-76" style="edgeStyle=none;rounded=0;orthogonalLoop=1;jettySize=auto;html=1;entryX=1;entryY=0;entryDx=0;entryDy=0;strokeColor=default;align=center;verticalAlign=middle;fontFamily=Helvetica;fontSize=11;fontColor=default;labelBackgroundColor=default;endArrow=none;endFill=0;" edge="1" parent="as5cuZJcGbEVG_w11zq_-69" source="as5cuZJcGbEVG_w11zq_-79" target="as5cuZJcGbEVG_w11zq_-88">
          <mxGeometry relative="1" as="geometry" />
        </mxCell>
        <mxCell id="as5cuZJcGbEVG_w11zq_-77" style="edgeStyle=none;rounded=0;orthogonalLoop=1;jettySize=auto;html=1;entryX=1;entryY=0.5;entryDx=0;entryDy=0;strokeColor=default;align=center;verticalAlign=middle;fontFamily=Helvetica;fontSize=11;fontColor=default;labelBackgroundColor=default;endArrow=none;endFill=0;" edge="1" parent="as5cuZJcGbEVG_w11zq_-69" source="as5cuZJcGbEVG_w11zq_-79" target="as5cuZJcGbEVG_w11zq_-87">
          <mxGeometry relative="1" as="geometry" />
        </mxCell>
        <mxCell id="as5cuZJcGbEVG_w11zq_-78" style="edgeStyle=none;rounded=0;orthogonalLoop=1;jettySize=auto;html=1;entryX=1;entryY=0.5;entryDx=0;entryDy=0;strokeColor=default;align=center;verticalAlign=middle;fontFamily=Helvetica;fontSize=11;fontColor=default;labelBackgroundColor=default;endArrow=none;endFill=0;" edge="1" parent="as5cuZJcGbEVG_w11zq_-69" source="as5cuZJcGbEVG_w11zq_-79" target="as5cuZJcGbEVG_w11zq_-80">
          <mxGeometry relative="1" as="geometry" />
        </mxCell>
        <mxCell id="as5cuZJcGbEVG_w11zq_-79" value="Videos_short" style="whiteSpace=wrap;html=1;align=center;" vertex="1" parent="as5cuZJcGbEVG_w11zq_-69">
          <mxGeometry x="190" y="130" width="100" height="40" as="geometry" />
        </mxCell>
        <mxCell id="as5cuZJcGbEVG_w11zq_-80" value="&lt;u&gt;vdo_id&lt;/u&gt;" style="ellipse;whiteSpace=wrap;html=1;align=center;" vertex="1" parent="as5cuZJcGbEVG_w11zq_-69">
          <mxGeometry x="10" y="60" width="100" height="40" as="geometry" />
        </mxCell>
        <mxCell id="as5cuZJcGbEVG_w11zq_-81" value="Vdo_url" style="ellipse;whiteSpace=wrap;html=1;align=center;" vertex="1" parent="as5cuZJcGbEVG_w11zq_-69">
          <mxGeometry x="140" width="100" height="40" as="geometry" />
        </mxCell>
        <mxCell id="as5cuZJcGbEVG_w11zq_-82" value="Thumb_url" style="ellipse;whiteSpace=wrap;html=1;align=center;" vertex="1" parent="as5cuZJcGbEVG_w11zq_-69">
          <mxGeometry x="295" y="10" width="100" height="40" as="geometry" />
        </mxCell>
        <mxCell id="as5cuZJcGbEVG_w11zq_-83" value="Title" style="ellipse;whiteSpace=wrap;html=1;align=center;" vertex="1" parent="as5cuZJcGbEVG_w11zq_-69">
          <mxGeometry x="395" y="80" width="100" height="40" as="geometry" />
        </mxCell>
        <mxCell id="as5cuZJcGbEVG_w11zq_-84" value="Description" style="ellipse;whiteSpace=wrap;html=1;align=center;" vertex="1" parent="as5cuZJcGbEVG_w11zq_-69">
          <mxGeometry x="395" y="170" width="100" height="40" as="geometry" />
        </mxCell>
        <mxCell id="as5cuZJcGbEVG_w11zq_-85" value="Views_count" style="ellipse;whiteSpace=wrap;html=1;align=center;" vertex="1" parent="as5cuZJcGbEVG_w11zq_-69">
          <mxGeometry x="295" y="230" width="100" height="40" as="geometry" />
        </mxCell>
        <mxCell id="as5cuZJcGbEVG_w11zq_-86" value="Like_count" style="ellipse;whiteSpace=wrap;html=1;align=center;" vertex="1" parent="as5cuZJcGbEVG_w11zq_-69">
          <mxGeometry x="160" y="240" width="100" height="40" as="geometry" />
        </mxCell>
        <mxCell id="as5cuZJcGbEVG_w11zq_-87" value="create_date" style="ellipse;whiteSpace=wrap;html=1;align=center;" vertex="1" parent="as5cuZJcGbEVG_w11zq_-69">
          <mxGeometry y="150" width="100" height="40" as="geometry" />
        </mxCell>
        <mxCell id="as5cuZJcGbEVG_w11zq_-88" value="&lt;span style=&quot;border-bottom: 1px dotted&quot;&gt;Channel_id&lt;/span&gt;" style="ellipse;whiteSpace=wrap;html=1;align=center;fontFamily=Helvetica;fontSize=11;fontColor=default;labelBackgroundColor=default;" vertex="1" parent="as5cuZJcGbEVG_w11zq_-69">
          <mxGeometry x="30" y="230" width="100" height="40" as="geometry" />
        </mxCell>
        <mxCell id="as5cuZJcGbEVG_w11zq_-142" value="" style="group" vertex="1" connectable="0" parent="1">
          <mxGeometry x="630" y="80" width="450" height="250" as="geometry" />
        </mxCell>
        <mxCell id="as5cuZJcGbEVG_w11zq_-104" value="" style="edgeStyle=none;rounded=0;orthogonalLoop=1;jettySize=auto;html=1;strokeColor=default;align=center;verticalAlign=middle;fontFamily=Helvetica;fontSize=11;fontColor=default;labelBackgroundColor=default;endArrow=none;endFill=0;" edge="1" parent="as5cuZJcGbEVG_w11zq_-142" source="as5cuZJcGbEVG_w11zq_-10" target="as5cuZJcGbEVG_w11zq_-92">
          <mxGeometry relative="1" as="geometry" />
        </mxCell>
        <mxCell id="as5cuZJcGbEVG_w11zq_-108" style="edgeStyle=none;rounded=0;orthogonalLoop=1;jettySize=auto;html=1;entryX=1;entryY=0.5;entryDx=0;entryDy=0;strokeColor=default;align=center;verticalAlign=middle;fontFamily=Helvetica;fontSize=11;fontColor=default;labelBackgroundColor=default;endArrow=none;endFill=0;" edge="1" parent="as5cuZJcGbEVG_w11zq_-142" source="as5cuZJcGbEVG_w11zq_-10" target="as5cuZJcGbEVG_w11zq_-103">
          <mxGeometry relative="1" as="geometry" />
        </mxCell>
        <mxCell id="as5cuZJcGbEVG_w11zq_-110" style="edgeStyle=none;rounded=0;orthogonalLoop=1;jettySize=auto;html=1;strokeColor=default;align=center;verticalAlign=middle;fontFamily=Helvetica;fontSize=11;fontColor=default;labelBackgroundColor=default;endArrow=none;endFill=0;" edge="1" parent="as5cuZJcGbEVG_w11zq_-142" source="as5cuZJcGbEVG_w11zq_-10" target="as5cuZJcGbEVG_w11zq_-100">
          <mxGeometry relative="1" as="geometry" />
        </mxCell>
        <mxCell id="as5cuZJcGbEVG_w11zq_-111" style="edgeStyle=none;rounded=0;orthogonalLoop=1;jettySize=auto;html=1;strokeColor=default;align=center;verticalAlign=middle;fontFamily=Helvetica;fontSize=11;fontColor=default;labelBackgroundColor=default;endArrow=none;endFill=0;" edge="1" parent="as5cuZJcGbEVG_w11zq_-142" source="as5cuZJcGbEVG_w11zq_-10" target="as5cuZJcGbEVG_w11zq_-93">
          <mxGeometry relative="1" as="geometry" />
        </mxCell>
        <mxCell id="as5cuZJcGbEVG_w11zq_-10" value="Channels&lt;span style=&quot;color: rgba(0, 0, 0, 0); font-family: monospace; font-size: 0px; text-align: start; text-wrap: nowrap;&quot;&gt;%3CmxGraphModel%3E%3Croot%3E%3CmxCell%20id%3D%220%22%2F%3E%3CmxCell%20id%3D%221%22%20parent%3D%220%22%2F%3E%3CmxCell%20id%3D%222%22%20value%3D%22Videos_long%22%20style%3D%22whiteSpace%3Dwrap%3Bhtml%3D1%3Balign%3Dcenter%3B%22%20vertex%3D%221%22%20parent%3D%221%22%3E%3CmxGeometry%20x%3D%22720%22%20y%3D%2290%22%20width%3D%22100%22%20height%3D%2240%22%20as%3D%22geometry%22%2F%3E%3C%2FmxCell%3E%3C%2Froot%3E%3C%2FmxGraphModel%3E&lt;/span&gt;&lt;span style=&quot;color: rgba(0, 0, 0, 0); font-family: monospace; font-size: 0px; text-align: start; text-wrap: nowrap;&quot;&gt;%3CmxGraphModel%3E%3Croot%3E%3CmxCell%20id%3D%220%22%2F%3E%3CmxCell%20id%3D%221%22%20parent%3D%220%22%2F%3E%3CmxCell%20id%3D%222%22%20value%3D%22Videos_long%22%20style%3D%22whiteSpace%3Dwrap%3Bhtml%3D1%3Balign%3Dcenter%3B%22%20vertex%3D%221%22%20parent%3D%221%22%3E%3CmxGeometry%20x%3D%22720%22%20y%3D%2290%22%20width%3D%22100%22%20height%3D%2240%22%20as%3D%22geometry%22%2F%3E%3C%2FmxCell%3E%3C%2Froot%3E%3C%2FmxGraphModel%3E&lt;/span&gt;" style="whiteSpace=wrap;html=1;align=center;" vertex="1" parent="as5cuZJcGbEVG_w11zq_-142">
          <mxGeometry x="180" y="110" width="100" height="40" as="geometry" />
        </mxCell>
        <mxCell id="as5cuZJcGbEVG_w11zq_-90" value="Channel_name&lt;span style=&quot;color: rgba(0, 0, 0, 0); font-family: monospace; font-size: 0px; text-align: start; text-wrap: nowrap; background-color: rgb(251, 251, 251);&quot;&gt;%3CmxGraphModel%3E%3Croot%3E%3CmxCell%20id%3D%220%22%2F%3E%3CmxCell%20id%3D%221%22%20parent%3D%220%22%2F%3E%3CmxCell%20id%3D%222%22%20value%3D%22%22%20style%3D%22group%22%20vertex%3D%221%22%20connectable%3D%220%22%20parent%3D%221%22%3E%3CmxGeometry%20x%3D%2220%22%20y%3D%2260%22%20width%3D%22495%22%20height%3D%22280%22%20as%3D%22geometry%22%2F%3E%3C%2FmxCell%3E%3CmxCell%20id%3D%223%22%20style%3D%22edgeStyle%3Dnone%3Brounded%3D0%3BorthogonalLoop%3D1%3BjettySize%3Dauto%3Bhtml%3D1%3BstrokeColor%3Ddefault%3Balign%3Dcenter%3BverticalAlign%3Dmiddle%3BfontFamily%3DHelvetica%3BfontSize%3D11%3BfontColor%3Ddefault%3BlabelBackgroundColor%3Ddefault%3BendArrow%3Dnone%3BendFill%3D0%3B%22%20edge%3D%221%22%20parent%3D%222%22%20source%3D%2212%22%20target%3D%2215%22%3E%3CmxGeometry%20relative%3D%221%22%20as%3D%22geometry%22%2F%3E%3C%2FmxCell%3E%3CmxCell%20id%3D%224%22%20style%3D%22edgeStyle%3Dnone%3Brounded%3D0%3BorthogonalLoop%3D1%3BjettySize%3Dauto%3Bhtml%3D1%3BentryX%3D0.5%3BentryY%3D1%3BentryDx%3D0%3BentryDy%3D0%3BstrokeColor%3Ddefault%3Balign%3Dcenter%3BverticalAlign%3Dmiddle%3BfontFamily%3DHelvetica%3BfontSize%3D11%3BfontColor%3Ddefault%3BlabelBackgroundColor%3Ddefault%3BendArrow%3Dnone%3BendFill%3D0%3B%22%20edge%3D%221%22%20parent%3D%222%22%20source%3D%2212%22%20target%3D%2214%22%3E%3CmxGeometry%20relative%3D%221%22%20as%3D%22geometry%22%2F%3E%3C%2FmxCell%3E%3CmxCell%20id%3D%225%22%20style%3D%22edgeStyle%3Dnone%3Brounded%3D0%3BorthogonalLoop%3D1%3BjettySize%3Dauto%3Bhtml%3D1%3BentryX%3D0%3BentryY%3D0.5%3BentryDx%3D0%3BentryDy%3D0%3BstrokeColor%3Ddefault%3Balign%3Dcenter%3BverticalAlign%3Dmiddle%3BfontFamily%3DHelvetica%3BfontSize%3D11%3BfontColor%3Ddefault%3BlabelBackgroundColor%3Ddefault%3BendArrow%3Dnone%3BendFill%3D0%3B%22%20edge%3D%221%22%20parent%3D%222%22%20source%3D%2212%22%20target%3D%2216%22%3E%3CmxGeometry%20relative%3D%221%22%20as%3D%22geometry%22%2F%3E%3C%2FmxCell%3E%3CmxCell%20id%3D%226%22%20style%3D%22edgeStyle%3Dnone%3Brounded%3D0%3BorthogonalLoop%3D1%3BjettySize%3Dauto%3Bhtml%3D1%3BstrokeColor%3Ddefault%3Balign%3Dcenter%3BverticalAlign%3Dmiddle%3BfontFamily%3DHelvetica%3BfontSize%3D11%3BfontColor%3Ddefault%3BlabelBackgroundColor%3Ddefault%3BendArrow%3Dnone%3BendFill%3D0%3B%22%20edge%3D%221%22%20parent%3D%222%22%20source%3D%2212%22%20target%3D%2217%22%3E%3CmxGeometry%20relative%3D%221%22%20as%3D%22geometry%22%2F%3E%3C%2FmxCell%3E%3CmxCell%20id%3D%227%22%20style%3D%22edgeStyle%3Dnone%3Brounded%3D0%3BorthogonalLoop%3D1%3BjettySize%3Dauto%3Bhtml%3D1%3BstrokeColor%3Ddefault%3Balign%3Dcenter%3BverticalAlign%3Dmiddle%3BfontFamily%3DHelvetica%3BfontSize%3D11%3BfontColor%3Ddefault%3BlabelBackgroundColor%3Ddefault%3BendArrow%3Dnone%3BendFill%3D0%3B%22%20edge%3D%221%22%20parent%3D%222%22%20source%3D%2212%22%20target%3D%2218%22%3E%3CmxGeometry%20relative%3D%221%22%20as%3D%22geometry%22%2F%3E%3C%2FmxCell%3E%3CmxCell%20id%3D%228%22%20style%3D%22edgeStyle%3Dnone%3Brounded%3D0%3BorthogonalLoop%3D1%3BjettySize%3Dauto%3Bhtml%3D1%3BentryX%3D0.5%3BentryY%3D0%3BentryDx%3D0%3BentryDy%3D0%3BstrokeColor%3Ddefault%3Balign%3Dcenter%3BverticalAlign%3Dmiddle%3BfontFamily%3DHelvetica%3BfontSize%3D11%3BfontColor%3Ddefault%3BlabelBackgroundColor%3Ddefault%3BendArrow%3Dnone%3BendFill%3D0%3B%22%20edge%3D%221%22%20parent%3D%222%22%20source%3D%2212%22%20target%3D%2219%22%3E%3CmxGeometry%20relative%3D%221%22%20as%3D%22geometry%22%2F%3E%3C%2FmxCell%3E%3CmxCell%20id%3D%229%22%20style%3D%22edgeStyle%3Dnone%3Brounded%3D0%3BorthogonalLoop%3D1%3BjettySize%3Dauto%3Bhtml%3D1%3BentryX%3D1%3BentryY%3D0%3BentryDx%3D0%3BentryDy%3D0%3BstrokeColor%3Ddefault%3Balign%3Dcenter%3BverticalAlign%3Dmiddle%3BfontFamily%3DHelvetica%3BfontSize%3D11%3BfontColor%3Ddefault%3BlabelBackgroundColor%3Ddefault%3BendArrow%3Dnone%3BendFill%3D0%3B%22%20edge%3D%221%22%20parent%3D%222%22%20source%3D%2212%22%20target%3D%2221%22%3E%3CmxGeometry%20relative%3D%221%22%20as%3D%22geometry%22%2F%3E%3C%2FmxCell%3E%3CmxCell%20id%3D%2210%22%20style%3D%22edgeStyle%3Dnone%3Brounded%3D0%3BorthogonalLoop%3D1%3BjettySize%3Dauto%3Bhtml%3D1%3BentryX%3D1%3BentryY%3D0.5%3BentryDx%3D0%3BentryDy%3D0%3BstrokeColor%3Ddefault%3Balign%3Dcenter%3BverticalAlign%3Dmiddle%3BfontFamily%3DHelvetica%3BfontSize%3D11%3BfontColor%3Ddefault%3BlabelBackgroundColor%3Ddefault%3BendArrow%3Dnone%3BendFill%3D0%3B%22%20edge%3D%221%22%20parent%3D%222%22%20source%3D%2212%22%20target%3D%2220%22%3E%3CmxGeometry%20relative%3D%221%22%20as%3D%22geometry%22%2F%3E%3C%2FmxCell%3E%3CmxCell%20id%3D%2211%22%20style%3D%22edgeStyle%3Dnone%3Brounded%3D0%3BorthogonalLoop%3D1%3BjettySize%3Dauto%3Bhtml%3D1%3BentryX%3D1%3BentryY%3D0.5%3BentryDx%3D0%3BentryDy%3D0%3BstrokeColor%3Ddefault%3Balign%3Dcenter%3BverticalAlign%3Dmiddle%3BfontFamily%3DHelvetica%3BfontSize%3D11%3BfontColor%3Ddefault%3BlabelBackgroundColor%3Ddefault%3BendArrow%3Dnone%3BendFill%3D0%3B%22%20edge%3D%221%22%20parent%3D%222%22%20source%3D%2212%22%20target%3D%2213%22%3E%3CmxGeometry%20relative%3D%221%22%20as%3D%22geometry%22%2F%3E%3C%2FmxCell%3E%3CmxCell%20id%3D%2212%22%20value%3D%22Videos_long%22%20style%3D%22whiteSpace%3Dwrap%3Bhtml%3D1%3Balign%3Dcenter%3B%22%20vertex%3D%221%22%20parent%3D%222%22%3E%3CmxGeometry%20x%3D%22190%22%20y%3D%22130%22%20width%3D%22100%22%20height%3D%2240%22%20as%3D%22geometry%22%2F%3E%3C%2FmxCell%3E%3CmxCell%20id%3D%2213%22%20value%3D%22%26lt%3Bu%26gt%3Bvdo_id%26lt%3B%2Fu%26gt%3B%22%20style%3D%22ellipse%3BwhiteSpace%3Dwrap%3Bhtml%3D1%3Balign%3Dcenter%3B%22%20vertex%3D%221%22%20parent%3D%222%22%3E%3CmxGeometry%20x%3D%2210%22%20y%3D%2260%22%20width%3D%22100%22%20height%3D%2240%22%20as%3D%22geometry%22%2F%3E%3C%2FmxCell%3E%3CmxCell%20id%3D%2214%22%20value%3D%22Vdo_url%22%20style%3D%22ellipse%3BwhiteSpace%3Dwrap%3Bhtml%3D1%3Balign%3Dcenter%3B%22%20vertex%3D%221%22%20parent%3D%222%22%3E%3CmxGeometry%20x%3D%22140%22%20width%3D%22100%22%20height%3D%2240%22%20as%3D%22geometry%22%2F%3E%3C%2FmxCell%3E%3CmxCell%20id%3D%2215%22%20value%3D%22Thumb_url%22%20style%3D%22ellipse%3BwhiteSpace%3Dwrap%3Bhtml%3D1%3Balign%3Dcenter%3B%22%20vertex%3D%221%22%20parent%3D%222%22%3E%3CmxGeometry%20x%3D%22295%22%20y%3D%2210%22%20width%3D%22100%22%20height%3D%2240%22%20as%3D%22geometry%22%2F%3E%3C%2FmxCell%3E%3CmxCell%20id%3D%2216%22%20value%3D%22Title%22%20style%3D%22ellipse%3BwhiteSpace%3Dwrap%3Bhtml%3D1%3Balign%3Dcenter%3B%22%20vertex%3D%221%22%20parent%3D%222%22%3E%3CmxGeometry%20x%3D%22395%22%20y%3D%2280%22%20width%3D%22100%22%20height%3D%2240%22%20as%3D%22geometry%22%2F%3E%3C%2FmxCell%3E%3CmxCell%20id%3D%2217%22%20value%3D%22Description%22%20style%3D%22ellipse%3BwhiteSpace%3Dwrap%3Bhtml%3D1%3Balign%3Dcenter%3B%22%20vertex%3D%221%22%20parent%3D%222%22%3E%3CmxGeometry%20x%3D%22395%22%20y%3D%22170%22%20width%3D%22100%22%20height%3D%2240%22%20as%3D%22geometry%22%2F%3E%3C%2FmxCell%3E%3CmxCell%20id%3D%2218%22%20value%3D%22Views_count%22%20style%3D%22ellipse%3BwhiteSpace%3Dwrap%3Bhtml%3D1%3Balign%3Dcenter%3B%22%20vertex%3D%221%22%20parent%3D%222%22%3E%3CmxGeometry%20x%3D%22295%22%20y%3D%22230%22%20width%3D%22100%22%20height%3D%2240%22%20as%3D%22geometry%22%2F%3E%3C%2FmxCell%3E%3CmxCell%20id%3D%2219%22%20value%3D%22Like_count%22%20style%3D%22ellipse%3BwhiteSpace%3Dwrap%3Bhtml%3D1%3Balign%3Dcenter%3B%22%20vertex%3D%221%22%20parent%3D%222%22%3E%3CmxGeometry%20x%3D%22160%22%20y%3D%22240%22%20width%3D%22100%22%20height%3D%2240%22%20as%3D%22geometry%22%2F%3E%3C%2FmxCell%3E%3CmxCell%20id%3D%2220%22%20value%3D%22create_date%22%20style%3D%22ellipse%3BwhiteSpace%3Dwrap%3Bhtml%3D1%3Balign%3Dcenter%3B%22%20vertex%3D%221%22%20parent%3D%222%22%3E%3CmxGeometry%20y%3D%22150%22%20width%3D%22100%22%20height%3D%2240%22%20as%3D%22geometry%22%2F%3E%3C%2FmxCell%3E%3CmxCell%20id%3D%2221%22%20value%3D%22%26lt%3Bspan%20style%3D%26quot%3Bborder-bottom%3A%201px%20dotted%26quot%3B%26gt%3BChannel_id%26lt%3B%2Fspan%26gt%3B%22%20style%3D%22ellipse%3BwhiteSpace%3Dwrap%3Bhtml%3D1%3Balign%3Dcenter%3BfontFamily%3DHelvetica%3BfontSize%3D11%3BfontColor%3Ddefault%3BlabelBackgroundColor%3Ddefault%3B%22%20vertex%3D%221%22%20parent%3D%222%22%3E%3CmxGeometry%20x%3D%2230%22%20y%3D%22230%22%20width%3D%22100%22%20height%3D%2240%22%20as%3D%22geometry%22%2F%3E%3C%2FmxCell%3E%3C%2Froot%3E%3C%2FmxGraphModel%3E&lt;/span&gt;" style="ellipse;whiteSpace=wrap;html=1;align=center;fontFamily=Helvetica;fontSize=11;fontColor=default;labelBackgroundColor=default;" vertex="1" parent="as5cuZJcGbEVG_w11zq_-142">
          <mxGeometry x="90" y="10" width="100" height="40" as="geometry" />
        </mxCell>
        <mxCell id="as5cuZJcGbEVG_w11zq_-91" value="Channel_id" style="ellipse;whiteSpace=wrap;html=1;align=center;fontStyle=4;fontFamily=Helvetica;fontSize=11;fontColor=default;labelBackgroundColor=default;" vertex="1" parent="as5cuZJcGbEVG_w11zq_-142">
          <mxGeometry y="80" width="100" height="40" as="geometry" />
        </mxCell>
        <mxCell id="as5cuZJcGbEVG_w11zq_-92" value="Channnel_profile_url" style="ellipse;whiteSpace=wrap;html=1;align=center;fontFamily=Helvetica;fontSize=11;fontColor=default;labelBackgroundColor=default;" vertex="1" parent="as5cuZJcGbEVG_w11zq_-142">
          <mxGeometry x="240" width="100" height="40" as="geometry" />
        </mxCell>
        <mxCell id="as5cuZJcGbEVG_w11zq_-93" value="Channel_banner_url" style="ellipse;whiteSpace=wrap;html=1;align=center;fontFamily=Helvetica;fontSize=11;fontColor=default;labelBackgroundColor=default;" vertex="1" parent="as5cuZJcGbEVG_w11zq_-142">
          <mxGeometry x="350" y="100" width="100" height="40" as="geometry" />
        </mxCell>
        <mxCell id="as5cuZJcGbEVG_w11zq_-100" value="Channel_description" style="ellipse;whiteSpace=wrap;html=1;align=center;fontFamily=Helvetica;fontSize=11;fontColor=default;labelBackgroundColor=default;" vertex="1" parent="as5cuZJcGbEVG_w11zq_-142">
          <mxGeometry x="330" y="190" width="100" height="40" as="geometry" />
        </mxCell>
        <mxCell id="as5cuZJcGbEVG_w11zq_-101" value="create_at&lt;span style=&quot;color: rgba(0, 0, 0, 0); font-family: monospace; font-size: 0px; text-align: start; text-wrap: nowrap; background-color: rgb(251, 251, 251);&quot;&gt;%3CmxGraphModel%3E%3Croot%3E%3CmxCell%20id%3D%220%22%2F%3E%3CmxCell%20id%3D%221%22%20parent%3D%220%22%2F%3E%3CmxCell%20id%3D%222%22%20value%3D%22Channel_description%22%20style%3D%22ellipse%3BwhiteSpace%3Dwrap%3Bhtml%3D1%3Balign%3Dcenter%3BfontFamily%3DHelvetica%3BfontSize%3D11%3BfontColor%3Ddefault%3BlabelBackgroundColor%3Ddefault%3B%22%20vertex%3D%221%22%20parent%3D%221%22%3E%3CmxGeometry%20x%3D%22890%22%20y%3D%22570%22%20width%3D%22100%22%20height%3D%2240%22%20as%3D%22geometry%22%2F%3E%3C%2FmxCell%3E%3C%2Froot%3E%3C%2FmxGraphModel%3E&lt;/span&gt;" style="ellipse;whiteSpace=wrap;html=1;align=center;fontFamily=Helvetica;fontSize=11;fontColor=default;labelBackgroundColor=default;" vertex="1" parent="as5cuZJcGbEVG_w11zq_-142">
          <mxGeometry x="190" y="210" width="100" height="40" as="geometry" />
        </mxCell>
        <mxCell id="as5cuZJcGbEVG_w11zq_-103" value="update_at" style="ellipse;whiteSpace=wrap;html=1;align=center;fontFamily=Helvetica;fontSize=11;fontColor=default;labelBackgroundColor=default;" vertex="1" parent="as5cuZJcGbEVG_w11zq_-142">
          <mxGeometry x="40" y="180" width="100" height="40" as="geometry" />
        </mxCell>
        <mxCell id="as5cuZJcGbEVG_w11zq_-106" style="edgeStyle=none;rounded=0;orthogonalLoop=1;jettySize=auto;html=1;entryX=0.608;entryY=1.027;entryDx=0;entryDy=0;entryPerimeter=0;strokeColor=default;align=center;verticalAlign=middle;fontFamily=Helvetica;fontSize=11;fontColor=default;labelBackgroundColor=default;endArrow=none;endFill=0;" edge="1" parent="as5cuZJcGbEVG_w11zq_-142" source="as5cuZJcGbEVG_w11zq_-10" target="as5cuZJcGbEVG_w11zq_-90">
          <mxGeometry relative="1" as="geometry" />
        </mxCell>
        <mxCell id="as5cuZJcGbEVG_w11zq_-107" style="edgeStyle=none;rounded=0;orthogonalLoop=1;jettySize=auto;html=1;entryX=0.917;entryY=0.738;entryDx=0;entryDy=0;entryPerimeter=0;strokeColor=default;align=center;verticalAlign=middle;fontFamily=Helvetica;fontSize=11;fontColor=default;labelBackgroundColor=default;endArrow=none;endFill=0;" edge="1" parent="as5cuZJcGbEVG_w11zq_-142" source="as5cuZJcGbEVG_w11zq_-10" target="as5cuZJcGbEVG_w11zq_-91">
          <mxGeometry relative="1" as="geometry" />
        </mxCell>
        <mxCell id="as5cuZJcGbEVG_w11zq_-109" style="edgeStyle=none;rounded=0;orthogonalLoop=1;jettySize=auto;html=1;entryX=0.42;entryY=-0.081;entryDx=0;entryDy=0;entryPerimeter=0;strokeColor=default;align=center;verticalAlign=middle;fontFamily=Helvetica;fontSize=11;fontColor=default;labelBackgroundColor=default;endArrow=none;endFill=0;" edge="1" parent="as5cuZJcGbEVG_w11zq_-142" source="as5cuZJcGbEVG_w11zq_-10" target="as5cuZJcGbEVG_w11zq_-101">
          <mxGeometry relative="1" as="geometry" />
        </mxCell>
        <mxCell id="as5cuZJcGbEVG_w11zq_-112" value="Usernaem" style="ellipse;whiteSpace=wrap;html=1;align=center;fontFamily=Helvetica;fontSize=11;fontColor=default;labelBackgroundColor=default;" vertex="1" parent="as5cuZJcGbEVG_w11zq_-142">
          <mxGeometry x="330" y="30" width="100" height="40" as="geometry" />
        </mxCell>
        <mxCell id="as5cuZJcGbEVG_w11zq_-113" style="edgeStyle=none;rounded=0;orthogonalLoop=1;jettySize=auto;html=1;entryX=0.097;entryY=0.861;entryDx=0;entryDy=0;entryPerimeter=0;strokeColor=default;align=center;verticalAlign=middle;fontFamily=Helvetica;fontSize=11;fontColor=default;labelBackgroundColor=default;endArrow=none;endFill=0;" edge="1" parent="as5cuZJcGbEVG_w11zq_-142" source="as5cuZJcGbEVG_w11zq_-10" target="as5cuZJcGbEVG_w11zq_-112">
          <mxGeometry relative="1" as="geometry" />
        </mxCell>
        <mxCell id="as5cuZJcGbEVG_w11zq_-144" value="" style="group" vertex="1" connectable="0" parent="1">
          <mxGeometry x="680" y="400" width="425" height="140" as="geometry" />
        </mxCell>
        <mxCell id="as5cuZJcGbEVG_w11zq_-95" value="Channels_subscribe&lt;span style=&quot;color: rgba(0, 0, 0, 0); font-family: monospace; font-size: 0px; text-align: start; text-wrap: nowrap;&quot;&gt;%_3CmxGraphModel%3E%3Croot%3E%3CmxCell%20id%3D%220%22%2F%3E%3CmxCell%20id%3D%221%22%20parent%3D%220%22%2F%3E%3CmxCell%20id%3D%222%22%20value%3D%22Videos_long%22%20style%3D%22whiteSpace%3Dwrap%3Bhtml%3D1%3Balign%3Dcenter%3B%22%20vertex%3D%221%22%20parent%3D%221%22%3E%3CmxGeometry%20x%3D%22720%22%20y%3D%2290%22%20width%3D%22100%22%20height%3D%2240%22%20as%3D%22geometry%22%2F%3E%3C%2FmxCell%3E%3C%2Froot%3E%3C%2FmxGraphModel%3E&lt;/span&gt;&lt;span style=&quot;color: rgba(0, 0, 0, 0); font-family: monospace; font-size: 0px; text-align: start; text-wrap: nowrap;&quot;&gt;%3CmxGraphModel%3E%3Croot%3E%3CmxCell%20id%3D%220%22%2F%3E%3CmxCell%20id%3D%221%22%20parent%3D%220%22%2F%3E%3CmxCell%20id%3D%222%22%20value%3D%22Videos_long%22%20style%3D%22whiteSpace%3Dwrap%3Bhtml%3D1%3Balign%3Dcenter%3B%22%20vertex%3D%221%22%20parent%3D%221%22%3E%3CmxGeometry%20x%3D%22720%22%20y%3D%2290%22%20width%3D%22100%22%20height%3D%2240%22%20as%3D%22geometry%22%2F%3E%3C%2FmxCell%3E%3C%2Froot%3E%3C%2FmxGraphModel%3E&lt;/span&gt;" style="whiteSpace=wrap;html=1;align=center;" vertex="1" parent="as5cuZJcGbEVG_w11zq_-144">
          <mxGeometry x="150" y="100" width="100" height="40" as="geometry" />
        </mxCell>
        <mxCell id="as5cuZJcGbEVG_w11zq_-132" value="" style="edgeStyle=none;rounded=0;orthogonalLoop=1;jettySize=auto;html=1;strokeColor=default;align=center;verticalAlign=middle;fontFamily=Helvetica;fontSize=11;fontColor=default;labelBackgroundColor=default;endArrow=none;endFill=0;" edge="1" parent="as5cuZJcGbEVG_w11zq_-144" source="as5cuZJcGbEVG_w11zq_-98" target="as5cuZJcGbEVG_w11zq_-95">
          <mxGeometry relative="1" as="geometry" />
        </mxCell>
        <mxCell id="as5cuZJcGbEVG_w11zq_-98" value="subscribe_at" style="ellipse;whiteSpace=wrap;html=1;align=center;fontFamily=Helvetica;fontSize=11;fontColor=default;labelBackgroundColor=default;" vertex="1" parent="as5cuZJcGbEVG_w11zq_-144">
          <mxGeometry x="325" y="100" width="100" height="40" as="geometry" />
        </mxCell>
        <mxCell id="as5cuZJcGbEVG_w11zq_-130" value="" style="edgeStyle=none;rounded=0;orthogonalLoop=1;jettySize=auto;html=1;strokeColor=default;align=center;verticalAlign=middle;fontFamily=Helvetica;fontSize=11;fontColor=default;labelBackgroundColor=default;endArrow=none;endFill=0;" edge="1" parent="as5cuZJcGbEVG_w11zq_-144" source="as5cuZJcGbEVG_w11zq_-114" target="as5cuZJcGbEVG_w11zq_-95">
          <mxGeometry relative="1" as="geometry" />
        </mxCell>
        <mxCell id="as5cuZJcGbEVG_w11zq_-114" value="&lt;span style=&quot;border-bottom: 1px dotted&quot;&gt;Channel_id&lt;/span&gt;" style="ellipse;whiteSpace=wrap;html=1;align=center;fontFamily=Helvetica;fontSize=11;fontColor=default;labelBackgroundColor=default;" vertex="1" parent="as5cuZJcGbEVG_w11zq_-144">
          <mxGeometry x="150" width="100" height="40" as="geometry" />
        </mxCell>
        <mxCell id="as5cuZJcGbEVG_w11zq_-131" value="" style="edgeStyle=none;rounded=0;orthogonalLoop=1;jettySize=auto;html=1;strokeColor=default;align=center;verticalAlign=middle;fontFamily=Helvetica;fontSize=11;fontColor=default;labelBackgroundColor=default;endArrow=none;endFill=0;" edge="1" parent="as5cuZJcGbEVG_w11zq_-144" source="as5cuZJcGbEVG_w11zq_-116" target="as5cuZJcGbEVG_w11zq_-95">
          <mxGeometry relative="1" as="geometry" />
        </mxCell>
        <mxCell id="as5cuZJcGbEVG_w11zq_-116" value="&lt;span style=&quot;border-bottom: 1px dotted&quot;&gt;User_id&lt;/span&gt;" style="ellipse;whiteSpace=wrap;html=1;align=center;fontFamily=Helvetica;fontSize=11;fontColor=default;labelBackgroundColor=default;" vertex="1" parent="as5cuZJcGbEVG_w11zq_-144">
          <mxGeometry y="100" width="100" height="40" as="geometry" />
        </mxCell>
        <mxCell id="as5cuZJcGbEVG_w11zq_-146" value="" style="group" vertex="1" connectable="0" parent="1">
          <mxGeometry x="1210" y="260" width="450" height="280" as="geometry" />
        </mxCell>
        <mxCell id="as5cuZJcGbEVG_w11zq_-117" value="Users" style="whiteSpace=wrap;html=1;align=center;" vertex="1" parent="as5cuZJcGbEVG_w11zq_-146">
          <mxGeometry x="180" y="110" width="100" height="40" as="geometry" />
        </mxCell>
        <mxCell id="as5cuZJcGbEVG_w11zq_-135" style="edgeStyle=none;rounded=0;orthogonalLoop=1;jettySize=auto;html=1;entryX=0;entryY=0.25;entryDx=0;entryDy=0;strokeColor=default;align=center;verticalAlign=middle;fontFamily=Helvetica;fontSize=11;fontColor=default;labelBackgroundColor=default;endArrow=none;endFill=0;" edge="1" parent="as5cuZJcGbEVG_w11zq_-146" source="as5cuZJcGbEVG_w11zq_-118" target="as5cuZJcGbEVG_w11zq_-117">
          <mxGeometry relative="1" as="geometry" />
        </mxCell>
        <mxCell id="as5cuZJcGbEVG_w11zq_-118" value="user_id" style="ellipse;whiteSpace=wrap;html=1;align=center;fontStyle=4;fontFamily=Helvetica;fontSize=11;fontColor=default;labelBackgroundColor=default;" vertex="1" parent="as5cuZJcGbEVG_w11zq_-146">
          <mxGeometry y="90" width="100" height="40" as="geometry" />
        </mxCell>
        <mxCell id="as5cuZJcGbEVG_w11zq_-134" style="edgeStyle=none;rounded=0;orthogonalLoop=1;jettySize=auto;html=1;entryX=0.25;entryY=0;entryDx=0;entryDy=0;strokeColor=default;align=center;verticalAlign=middle;fontFamily=Helvetica;fontSize=11;fontColor=default;labelBackgroundColor=default;endArrow=none;endFill=0;" edge="1" parent="as5cuZJcGbEVG_w11zq_-146" source="as5cuZJcGbEVG_w11zq_-119" target="as5cuZJcGbEVG_w11zq_-117">
          <mxGeometry relative="1" as="geometry" />
        </mxCell>
        <mxCell id="as5cuZJcGbEVG_w11zq_-119" value="username" style="ellipse;whiteSpace=wrap;html=1;align=center;fontFamily=Helvetica;fontSize=11;fontColor=default;labelBackgroundColor=default;" vertex="1" parent="as5cuZJcGbEVG_w11zq_-146">
          <mxGeometry x="90" y="20" width="100" height="40" as="geometry" />
        </mxCell>
        <mxCell id="as5cuZJcGbEVG_w11zq_-133" style="edgeStyle=none;rounded=0;orthogonalLoop=1;jettySize=auto;html=1;strokeColor=default;align=center;verticalAlign=middle;fontFamily=Helvetica;fontSize=11;fontColor=default;labelBackgroundColor=default;endArrow=none;endFill=0;" edge="1" parent="as5cuZJcGbEVG_w11zq_-146" source="as5cuZJcGbEVG_w11zq_-120" target="as5cuZJcGbEVG_w11zq_-117">
          <mxGeometry relative="1" as="geometry" />
        </mxCell>
        <mxCell id="as5cuZJcGbEVG_w11zq_-120" value="&lt;span style=&quot;color: rgba(0, 0, 0, 0); font-family: monospace; font-size: 0px; text-align: start; text-wrap: nowrap; background-color: rgb(251, 251, 251);&quot;&gt;%3CmxGraphModel%3E%3Croot%3E%3CmxCell%20id%3D%220%22%2F%3E%3CmxCell%20id%3D%221%22%20parent%3D%220%22%2F%3E%3CmxCell%20id%3D%222%22%20value%3D%22username%22%20style%3D%22ellipse%3BwhiteSpace%3Dwrap%3Bhtml%3D1%3Balign%3Dcenter%3BfontFamily%3DHelvetica%3BfontSize%3D11%3BfontColor%3Ddefault%3BlabelBackgroundColor%3Ddefault%3B%22%20vertex%3D%221%22%20parent%3D%221%22%3E%3CmxGeometry%20x%3D%221290%22%20y%3D%22640%22%20width%3D%22100%22%20height%3D%2240%22%20as%3D%22geometry%22%2F%3E%3C%2FmxCell%3E%3C%2Froot%3E%3C%2FmxGraphModel%3E&lt;/span&gt;email" style="ellipse;whiteSpace=wrap;html=1;align=center;fontFamily=Helvetica;fontSize=11;fontColor=default;labelBackgroundColor=default;" vertex="1" parent="as5cuZJcGbEVG_w11zq_-146">
          <mxGeometry x="230" width="100" height="40" as="geometry" />
        </mxCell>
        <mxCell id="as5cuZJcGbEVG_w11zq_-141" style="edgeStyle=none;rounded=0;orthogonalLoop=1;jettySize=auto;html=1;entryX=1;entryY=0;entryDx=0;entryDy=0;strokeColor=default;align=center;verticalAlign=middle;fontFamily=Helvetica;fontSize=11;fontColor=default;labelBackgroundColor=default;endArrow=none;endFill=0;" edge="1" parent="as5cuZJcGbEVG_w11zq_-146" source="as5cuZJcGbEVG_w11zq_-124" target="as5cuZJcGbEVG_w11zq_-117">
          <mxGeometry relative="1" as="geometry" />
        </mxCell>
        <mxCell id="as5cuZJcGbEVG_w11zq_-124" value="password" style="ellipse;whiteSpace=wrap;html=1;align=center;fontFamily=Helvetica;fontSize=11;fontColor=default;labelBackgroundColor=default;" vertex="1" parent="as5cuZJcGbEVG_w11zq_-146">
          <mxGeometry x="330" y="40" width="100" height="40" as="geometry" />
        </mxCell>
        <mxCell id="as5cuZJcGbEVG_w11zq_-140" style="edgeStyle=none;rounded=0;orthogonalLoop=1;jettySize=auto;html=1;strokeColor=default;align=center;verticalAlign=middle;fontFamily=Helvetica;fontSize=11;fontColor=default;labelBackgroundColor=default;endArrow=none;endFill=0;" edge="1" parent="as5cuZJcGbEVG_w11zq_-146" source="as5cuZJcGbEVG_w11zq_-125" target="as5cuZJcGbEVG_w11zq_-117">
          <mxGeometry relative="1" as="geometry" />
        </mxCell>
        <mxCell id="as5cuZJcGbEVG_w11zq_-125" value="first_name" style="ellipse;whiteSpace=wrap;html=1;align=center;fontFamily=Helvetica;fontSize=11;fontColor=default;labelBackgroundColor=default;" vertex="1" parent="as5cuZJcGbEVG_w11zq_-146">
          <mxGeometry x="350" y="120" width="100" height="40" as="geometry" />
        </mxCell>
        <mxCell id="as5cuZJcGbEVG_w11zq_-139" style="edgeStyle=none;rounded=0;orthogonalLoop=1;jettySize=auto;html=1;entryX=1;entryY=1;entryDx=0;entryDy=0;strokeColor=default;align=center;verticalAlign=middle;fontFamily=Helvetica;fontSize=11;fontColor=default;labelBackgroundColor=default;endArrow=none;endFill=0;" edge="1" parent="as5cuZJcGbEVG_w11zq_-146" source="as5cuZJcGbEVG_w11zq_-126" target="as5cuZJcGbEVG_w11zq_-117">
          <mxGeometry relative="1" as="geometry" />
        </mxCell>
        <mxCell id="as5cuZJcGbEVG_w11zq_-126" value="last_name" style="ellipse;whiteSpace=wrap;html=1;align=center;fontFamily=Helvetica;fontSize=11;fontColor=default;labelBackgroundColor=default;" vertex="1" parent="as5cuZJcGbEVG_w11zq_-146">
          <mxGeometry x="330" y="190" width="100" height="40" as="geometry" />
        </mxCell>
        <mxCell id="as5cuZJcGbEVG_w11zq_-136" style="edgeStyle=none;rounded=0;orthogonalLoop=1;jettySize=auto;html=1;strokeColor=default;align=center;verticalAlign=middle;fontFamily=Helvetica;fontSize=11;fontColor=default;labelBackgroundColor=default;endArrow=none;endFill=0;" edge="1" parent="as5cuZJcGbEVG_w11zq_-146" source="as5cuZJcGbEVG_w11zq_-127" target="as5cuZJcGbEVG_w11zq_-117">
          <mxGeometry relative="1" as="geometry" />
        </mxCell>
        <mxCell id="as5cuZJcGbEVG_w11zq_-127" value="Create_at" style="ellipse;whiteSpace=wrap;html=1;align=center;fontFamily=Helvetica;fontSize=11;fontColor=default;labelBackgroundColor=default;" vertex="1" parent="as5cuZJcGbEVG_w11zq_-146">
          <mxGeometry x="40" y="190" width="100" height="40" as="geometry" />
        </mxCell>
        <mxCell id="as5cuZJcGbEVG_w11zq_-128" value="update_at" style="ellipse;whiteSpace=wrap;html=1;align=center;fontFamily=Helvetica;fontSize=11;fontColor=default;labelBackgroundColor=default;" vertex="1" parent="as5cuZJcGbEVG_w11zq_-146">
          <mxGeometry x="120" y="240" width="100" height="40" as="geometry" />
        </mxCell>
        <mxCell id="as5cuZJcGbEVG_w11zq_-129" value="profile_url" style="ellipse;whiteSpace=wrap;html=1;align=center;fontFamily=Helvetica;fontSize=11;fontColor=default;labelBackgroundColor=default;" vertex="1" parent="as5cuZJcGbEVG_w11zq_-146">
          <mxGeometry x="240" y="240" width="100" height="40" as="geometry" />
        </mxCell>
        <mxCell id="as5cuZJcGbEVG_w11zq_-137" style="edgeStyle=none;rounded=0;orthogonalLoop=1;jettySize=auto;html=1;entryX=0.34;entryY=1.025;entryDx=0;entryDy=0;entryPerimeter=0;strokeColor=default;align=center;verticalAlign=middle;fontFamily=Helvetica;fontSize=11;fontColor=default;labelBackgroundColor=default;endArrow=none;endFill=0;" edge="1" parent="as5cuZJcGbEVG_w11zq_-146" source="as5cuZJcGbEVG_w11zq_-128" target="as5cuZJcGbEVG_w11zq_-117">
          <mxGeometry relative="1" as="geometry" />
        </mxCell>
        <mxCell id="as5cuZJcGbEVG_w11zq_-138" style="edgeStyle=none;rounded=0;orthogonalLoop=1;jettySize=auto;html=1;entryX=0.649;entryY=1.054;entryDx=0;entryDy=0;entryPerimeter=0;strokeColor=default;align=center;verticalAlign=middle;fontFamily=Helvetica;fontSize=11;fontColor=default;labelBackgroundColor=default;endArrow=none;endFill=0;" edge="1" parent="as5cuZJcGbEVG_w11zq_-146" source="as5cuZJcGbEVG_w11zq_-129" target="as5cuZJcGbEVG_w11zq_-117">
          <mxGeometry relative="1" as="geometry" />
        </mxCell>
        <mxCell id="as5cuZJcGbEVG_w11zq_-170" style="edgeStyle=none;rounded=0;orthogonalLoop=1;jettySize=auto;html=1;strokeColor=default;align=center;verticalAlign=middle;fontFamily=Helvetica;fontSize=11;fontColor=default;labelBackgroundColor=default;endArrow=none;endFill=0;" edge="1" parent="1" source="as5cuZJcGbEVG_w11zq_-156" target="as5cuZJcGbEVG_w11zq_-169">
          <mxGeometry relative="1" as="geometry" />
        </mxCell>
        <mxCell id="as5cuZJcGbEVG_w11zq_-156" value="Comment" style="whiteSpace=wrap;html=1;align=center;fontFamily=Helvetica;fontSize=11;fontColor=default;labelBackgroundColor=default;" vertex="1" parent="1">
          <mxGeometry x="820" y="730" width="100" height="40" as="geometry" />
        </mxCell>
        <mxCell id="as5cuZJcGbEVG_w11zq_-165" style="edgeStyle=none;rounded=0;orthogonalLoop=1;jettySize=auto;html=1;entryX=0;entryY=0.5;entryDx=0;entryDy=0;strokeColor=default;align=center;verticalAlign=middle;fontFamily=Helvetica;fontSize=11;fontColor=default;labelBackgroundColor=default;endArrow=none;endFill=0;" edge="1" parent="1" source="as5cuZJcGbEVG_w11zq_-157" target="as5cuZJcGbEVG_w11zq_-156">
          <mxGeometry relative="1" as="geometry" />
        </mxCell>
        <mxCell id="as5cuZJcGbEVG_w11zq_-157" value="comment_id" style="ellipse;whiteSpace=wrap;html=1;align=center;fontStyle=4;fontFamily=Helvetica;fontSize=11;fontColor=default;labelBackgroundColor=default;" vertex="1" parent="1">
          <mxGeometry x="640" y="730" width="100" height="40" as="geometry" />
        </mxCell>
        <mxCell id="as5cuZJcGbEVG_w11zq_-164" style="edgeStyle=none;rounded=0;orthogonalLoop=1;jettySize=auto;html=1;strokeColor=default;align=center;verticalAlign=middle;fontFamily=Helvetica;fontSize=11;fontColor=default;labelBackgroundColor=default;endArrow=none;endFill=0;" edge="1" parent="1" source="as5cuZJcGbEVG_w11zq_-159" target="as5cuZJcGbEVG_w11zq_-156">
          <mxGeometry relative="1" as="geometry" />
        </mxCell>
        <mxCell id="as5cuZJcGbEVG_w11zq_-159" value="&lt;span style=&quot;border-bottom: 1px dotted&quot;&gt;Vdo_id&lt;/span&gt;" style="ellipse;whiteSpace=wrap;html=1;align=center;fontFamily=Helvetica;fontSize=11;fontColor=default;labelBackgroundColor=default;" vertex="1" parent="1">
          <mxGeometry x="710" y="630" width="100" height="40" as="geometry" />
        </mxCell>
        <mxCell id="as5cuZJcGbEVG_w11zq_-161" value="content" style="ellipse;whiteSpace=wrap;html=1;align=center;fontFamily=Helvetica;fontSize=11;fontColor=default;labelBackgroundColor=default;" vertex="1" parent="1">
          <mxGeometry x="850" y="620" width="100" height="40" as="geometry" />
        </mxCell>
        <mxCell id="as5cuZJcGbEVG_w11zq_-167" style="edgeStyle=none;rounded=0;orthogonalLoop=1;jettySize=auto;html=1;strokeColor=default;align=center;verticalAlign=middle;fontFamily=Helvetica;fontSize=11;fontColor=default;labelBackgroundColor=default;endArrow=none;endFill=0;" edge="1" parent="1" source="as5cuZJcGbEVG_w11zq_-162" target="as5cuZJcGbEVG_w11zq_-156">
          <mxGeometry relative="1" as="geometry" />
        </mxCell>
        <mxCell id="as5cuZJcGbEVG_w11zq_-162" value="Create_at" style="ellipse;whiteSpace=wrap;html=1;align=center;fontFamily=Helvetica;fontSize=11;fontColor=default;labelBackgroundColor=default;" vertex="1" parent="1">
          <mxGeometry x="960" y="700" width="100" height="40" as="geometry" />
        </mxCell>
        <mxCell id="as5cuZJcGbEVG_w11zq_-168" style="edgeStyle=none;rounded=0;orthogonalLoop=1;jettySize=auto;html=1;strokeColor=default;align=center;verticalAlign=middle;fontFamily=Helvetica;fontSize=11;fontColor=default;labelBackgroundColor=default;endArrow=none;endFill=0;" edge="1" parent="1" source="as5cuZJcGbEVG_w11zq_-163" target="as5cuZJcGbEVG_w11zq_-156">
          <mxGeometry relative="1" as="geometry" />
        </mxCell>
        <mxCell id="as5cuZJcGbEVG_w11zq_-163" value="Update_at" style="ellipse;whiteSpace=wrap;html=1;align=center;fontFamily=Helvetica;fontSize=11;fontColor=default;labelBackgroundColor=default;" vertex="1" parent="1">
          <mxGeometry x="900" y="800" width="100" height="40" as="geometry" />
        </mxCell>
        <mxCell id="as5cuZJcGbEVG_w11zq_-166" style="edgeStyle=none;rounded=0;orthogonalLoop=1;jettySize=auto;html=1;entryX=0.618;entryY=-0.077;entryDx=0;entryDy=0;entryPerimeter=0;strokeColor=default;align=center;verticalAlign=middle;fontFamily=Helvetica;fontSize=11;fontColor=default;labelBackgroundColor=default;endArrow=none;endFill=0;" edge="1" parent="1" source="as5cuZJcGbEVG_w11zq_-161" target="as5cuZJcGbEVG_w11zq_-156">
          <mxGeometry relative="1" as="geometry" />
        </mxCell>
        <mxCell id="as5cuZJcGbEVG_w11zq_-169" value="&lt;span style=&quot;border-bottom: 1px dotted&quot;&gt;user_id&lt;/span&gt;" style="ellipse;whiteSpace=wrap;html=1;align=center;fontFamily=Helvetica;fontSize=11;fontColor=default;labelBackgroundColor=default;" vertex="1" parent="1">
          <mxGeometry x="730" y="810" width="100" height="40" as="geometry" />
        </mxCell>
        <mxCell id="as5cuZJcGbEVG_w11zq_-171" style="edgeStyle=none;rounded=0;orthogonalLoop=1;jettySize=auto;html=1;strokeColor=default;align=center;verticalAlign=middle;fontFamily=Helvetica;fontSize=11;fontColor=default;labelBackgroundColor=default;endArrow=none;endFill=0;" edge="1" parent="1" source="as5cuZJcGbEVG_w11zq_-172" target="as5cuZJcGbEVG_w11zq_-183">
          <mxGeometry relative="1" as="geometry" />
        </mxCell>
        <mxCell id="as5cuZJcGbEVG_w11zq_-185" style="edgeStyle=none;rounded=0;orthogonalLoop=1;jettySize=auto;html=1;entryX=0;entryY=1;entryDx=0;entryDy=0;strokeColor=default;align=center;verticalAlign=middle;fontFamily=Helvetica;fontSize=11;fontColor=default;labelBackgroundColor=default;endArrow=none;endFill=0;" edge="1" parent="1" source="as5cuZJcGbEVG_w11zq_-172" target="as5cuZJcGbEVG_w11zq_-184">
          <mxGeometry relative="1" as="geometry" />
        </mxCell>
        <mxCell id="as5cuZJcGbEVG_w11zq_-187" style="edgeStyle=none;rounded=0;orthogonalLoop=1;jettySize=auto;html=1;entryX=0;entryY=1;entryDx=0;entryDy=0;strokeColor=default;align=center;verticalAlign=middle;fontFamily=Helvetica;fontSize=11;fontColor=default;labelBackgroundColor=default;endArrow=none;endFill=0;" edge="1" parent="1" source="as5cuZJcGbEVG_w11zq_-172" target="as5cuZJcGbEVG_w11zq_-186">
          <mxGeometry relative="1" as="geometry" />
        </mxCell>
        <mxCell id="as5cuZJcGbEVG_w11zq_-172" value="Popular" style="whiteSpace=wrap;html=1;align=center;fontFamily=Helvetica;fontSize=11;fontColor=default;labelBackgroundColor=default;" vertex="1" parent="1">
          <mxGeometry x="1360" y="730" width="100" height="40" as="geometry" />
        </mxCell>
        <mxCell id="as5cuZJcGbEVG_w11zq_-175" style="edgeStyle=none;rounded=0;orthogonalLoop=1;jettySize=auto;html=1;strokeColor=default;align=center;verticalAlign=middle;fontFamily=Helvetica;fontSize=11;fontColor=default;labelBackgroundColor=default;endArrow=none;endFill=0;" edge="1" parent="1" source="as5cuZJcGbEVG_w11zq_-176" target="as5cuZJcGbEVG_w11zq_-172">
          <mxGeometry relative="1" as="geometry" />
        </mxCell>
        <mxCell id="as5cuZJcGbEVG_w11zq_-176" value="&lt;span style=&quot;border-bottom: 1px dotted&quot;&gt;Vdo_id&lt;/span&gt;" style="ellipse;whiteSpace=wrap;html=1;align=center;fontFamily=Helvetica;fontSize=11;fontColor=default;labelBackgroundColor=default;" vertex="1" parent="1">
          <mxGeometry x="1230" y="640" width="100" height="40" as="geometry" />
        </mxCell>
        <mxCell id="as5cuZJcGbEVG_w11zq_-177" value="Like_count" style="ellipse;whiteSpace=wrap;html=1;align=center;fontFamily=Helvetica;fontSize=11;fontColor=default;labelBackgroundColor=default;" vertex="1" parent="1">
          <mxGeometry x="1370" y="630" width="100" height="40" as="geometry" />
        </mxCell>
        <mxCell id="as5cuZJcGbEVG_w11zq_-178" style="edgeStyle=none;rounded=0;orthogonalLoop=1;jettySize=auto;html=1;strokeColor=default;align=center;verticalAlign=middle;fontFamily=Helvetica;fontSize=11;fontColor=default;labelBackgroundColor=default;endArrow=none;endFill=0;" edge="1" parent="1" source="as5cuZJcGbEVG_w11zq_-179" target="as5cuZJcGbEVG_w11zq_-172">
          <mxGeometry relative="1" as="geometry" />
        </mxCell>
        <mxCell id="as5cuZJcGbEVG_w11zq_-179" value="Create_at" style="ellipse;whiteSpace=wrap;html=1;align=center;fontFamily=Helvetica;fontSize=11;fontColor=default;labelBackgroundColor=default;" vertex="1" parent="1">
          <mxGeometry x="1420" y="820" width="100" height="40" as="geometry" />
        </mxCell>
        <mxCell id="as5cuZJcGbEVG_w11zq_-180" style="edgeStyle=none;rounded=0;orthogonalLoop=1;jettySize=auto;html=1;strokeColor=default;align=center;verticalAlign=middle;fontFamily=Helvetica;fontSize=11;fontColor=default;labelBackgroundColor=default;endArrow=none;endFill=0;" edge="1" parent="1" source="as5cuZJcGbEVG_w11zq_-181" target="as5cuZJcGbEVG_w11zq_-172">
          <mxGeometry relative="1" as="geometry" />
        </mxCell>
        <mxCell id="as5cuZJcGbEVG_w11zq_-181" value="Update_at" style="ellipse;whiteSpace=wrap;html=1;align=center;fontFamily=Helvetica;fontSize=11;fontColor=default;labelBackgroundColor=default;" vertex="1" parent="1">
          <mxGeometry x="1260" y="820" width="100" height="40" as="geometry" />
        </mxCell>
        <mxCell id="as5cuZJcGbEVG_w11zq_-182" style="edgeStyle=none;rounded=0;orthogonalLoop=1;jettySize=auto;html=1;entryX=0.618;entryY=-0.077;entryDx=0;entryDy=0;entryPerimeter=0;strokeColor=default;align=center;verticalAlign=middle;fontFamily=Helvetica;fontSize=11;fontColor=default;labelBackgroundColor=default;endArrow=none;endFill=0;" edge="1" parent="1" source="as5cuZJcGbEVG_w11zq_-177" target="as5cuZJcGbEVG_w11zq_-172">
          <mxGeometry relative="1" as="geometry" />
        </mxCell>
        <mxCell id="as5cuZJcGbEVG_w11zq_-183" value="&lt;span style=&quot;border-bottom: 1px dotted&quot;&gt;user_id&lt;/span&gt;" style="ellipse;whiteSpace=wrap;html=1;align=center;fontFamily=Helvetica;fontSize=11;fontColor=default;labelBackgroundColor=default;" vertex="1" parent="1">
          <mxGeometry x="1175" y="740" width="100" height="40" as="geometry" />
        </mxCell>
        <mxCell id="as5cuZJcGbEVG_w11zq_-184" value="dislike_count" style="ellipse;whiteSpace=wrap;html=1;align=center;fontFamily=Helvetica;fontSize=11;fontColor=default;labelBackgroundColor=default;" vertex="1" parent="1">
          <mxGeometry x="1530" y="770" width="100" height="40" as="geometry" />
        </mxCell>
        <mxCell id="as5cuZJcGbEVG_w11zq_-186" value="views_count" style="ellipse;whiteSpace=wrap;html=1;align=center;fontFamily=Helvetica;fontSize=11;fontColor=default;labelBackgroundColor=default;" vertex="1" parent="1">
          <mxGeometry x="1500" y="660" width="100" height="40" as="geometry" />
        </mxCell>
      </root>
    </mxGraphModel>
  </diagram>
</mxfile>
